<?xml version="1.0" encoding="UTF-8"?>
<svg id="b" data-name="Logo construction Grid" xmlns="http://www.w3.org/2000/svg" width="772.148" height="206.503" viewBox="0 0 772.148 206.503">
  <g>
    <path d="M308.413,21.285h-18.173l-58.763,142.935h18.915l17.847-45.478h61.886l18.621,45.478h20.018l-59.715-141.434-.635-1.501ZM275.227,101.917l23.479-57.854,24.251,57.854h-47.73Z" fill="#fff"/>
    <path d="M537.334,61.597c-28.971,0-49.998,22.132-49.998,52.626s21.027,52.627,49.998,52.627,50.216-22.133,50.216-52.627-21.119-52.626-50.216-52.626ZM537.334,151.42c-19.161,0-31.064-14.253-31.064-37.197s11.903-37.196,31.064-37.196c19.295,0,31.281,14.253,31.281,37.196s-11.986,37.197-31.281,37.197Z" fill="#fff"/>
    <path d="M720.343,61.597c-29.097,0-50.216,22.132-50.216,52.626s21.119,52.627,50.216,52.627,49.998-22.133,49.998-52.627-21.027-52.626-49.998-52.626ZM720.343,151.42c-19.296,0-31.282-14.253-31.282-37.197s11.986-37.196,31.282-37.196c19.161,0,31.063,14.253,31.063,37.196s-11.902,37.197-31.063,37.197Z" fill="#fff"/>
    <rect x="601.457" y="21.285" width="18.279" height="142.935" fill="#fff"/>
    <rect x="637.94" y="21.285" width="18.279" height="142.935" fill="#fff"/>
    <path d="M397.5,150.819c6.456,8.873,17.652,16.031,32.596,16.031,27.808,0,46.491-21.149,46.491-52.627s-18.683-52.626-46.491-52.626c-14.921,0-26.125,7.237-32.596,16.202v-13.575h-18.279v137.654h18.279v-51.059ZM396.691,111.429c0-20.022,12.94-33.965,31.652-33.965,18.352,0,29.309,13.742,29.309,36.759s-10.957,36.758-29.309,36.758c-18.712,0-31.652-13.942-31.652-33.963v-5.589Z" fill="#fff"/>
  </g>
  <path d="M101.104,68.529l-.029-65.672c-2.904-.282-5.846-.43-8.824-.43-7.231,0-14.261.855-21,2.462l20.023,63.057c1.127,3.55-3.186,6.292-5.922,3.763L33.719,23.986c-7.32,6.244-13.635,13.634-18.655,21.898l65.835,34.821c9.172,4.851,20.21-1.801,20.205-12.176Z" fill="#f8ff2c"/>
  <path d="M83.172,117.134l.029,65.341c2.977.297,5.996.45,9.051.45,7.122,0,14.051-.828,20.698-2.388l-19.948-62.82c-1.127-3.55,3.186-6.292,5.922-3.763l51.566,47.66c7.349-6.215,13.692-13.58,18.747-21.823l-65.859-34.834c-9.171-4.851-20.21,1.801-20.205,12.176Z" fill="#f8ff2c"/>
  <path d="M113.261,86.046l47.819-51.738c-6.239-7.349-13.629-13.689-21.898-18.733l-34.918,66.017c-4.851,9.171,1.802,20.21,12.177,20.205l65.606-.029c.299-2.99.454-6.023.454-9.093,0-7.137-.832-14.079-2.398-20.738l-63.079,20.03c-3.55,1.127-6.291-3.186-3.763-5.922Z" fill="#f8ff2c"/>
  <path d="M67.835,83.865l-65.407.029c-.279,2.89-.426,5.818-.426,8.781,0,7.217.852,14.234,2.452,20.96l62.799-19.941c3.55-1.127,6.292,3.186,3.763,5.922l-47.563,51.462c6.22,7.32,13.585,13.637,21.822,18.669l34.738-65.676c4.851-9.172-1.801-20.21-12.177-20.205Z" fill="#f8ff2c"/>
</svg>